Coordinates
version=1
nRows=24
nColumns=24
inDegrees=yes

Units are S.I. units (second, meters, Newtons, ...)
Angles are in degrees.

endheader
time	pelvis_tilt	pelvis_list	pelvis_rotation	pelvis_tx	pelvis_ty	pelvis_tz	hip_flexion_r	hip_adduction_r	hip_rotation_r	knee_angle_r	ankle_angle_r	subtalar_angle_r	mtp_angle_r	hip_flexion_l	hip_adduction_l	hip_rotation_l	knee_angle_l	ankle_angle_l	subtalar_angle_l	mtp_angle_l	lumbar_extension	lumbar_bending	lumbar_rotation
      5.31500000	     -2.32429180	     -0.72419591	     -2.96398230	      1.35395008	      1.03590111	     -0.19282131	     -0.69951524	      6.01517839	      8.60435194	     -8.84555465	     15.70039743	    -10.23497538	      0.00000000	     28.22786767	     -5.62049540	    -14.23368835	    -53.17129996	      6.39900356	     -4.26794614	      0.00000000	    -10.66668856	     -0.81294834	      5.11721488
      5.32000000	     -2.36673760	     -0.61516656	     -3.12563617	      1.35970620	      1.03589064	     -0.19283251	     -1.19440633	      5.85688535	      8.85224910	     -8.44071267	     15.55901674	    -10.47305723	      0.00000000	     28.38481568	     -5.42251658	    -14.36457276	    -51.62649071	      6.76880354	     -4.00519861	      0.00000000	    -10.64590794	     -0.96510540	      5.30965618
      5.32500000	     -2.43557701	     -0.51987799	     -3.26571946	      1.36551566	      1.03578069	     -0.19287396	     -1.65918226	      5.71105484	      9.08511164	     -8.05072684	     15.44841147	    -10.66504413	      0.00000000	     28.54300198	     -5.22872150	    -14.47122990	    -50.02364850	      7.09817422	     -3.74086202	      0.00000000	    -10.58105998	     -1.09956673	      5.45306080
      5.33000000	     -2.43408431	     -0.41203306	     -3.44955176	      1.37132247	      1.03574113	     -0.19287477	     -2.19571298	      5.54931226	      9.39990596	     -7.65741882	     15.24437985	    -11.01513768	      0.00000000	     28.57845026	     -5.04162351	    -14.65623159	    -48.33504499	      7.36326055	     -3.52224377	      0.00000000	    -10.61432621	     -1.25568236	      5.68517121
      5.33500000	     -2.46235974	     -0.32303362	     -3.59429755	      1.37718489	      1.03556936	     -0.19295573	     -2.69630269	      5.40445722	      9.68376128	     -7.28453656	     15.09421714	    -11.31681716	      0.00000000	     28.62248669	     -4.84925892	    -14.79033346	    -46.59437528	      7.61936857	     -3.29517312	      0.00000000	    -10.60369195	     -1.37937014	      5.85044102
      5.34000000	     -2.49973318	     -0.24213457	     -3.73880121	      1.38308217	      1.03531472	     -0.19305008	     -3.17991044	      5.26603479	      9.97631183	     -6.93254044	     14.96693841	    -11.60984628	      0.00000000	     28.64437981	     -4.66006511	    -14.92099788	    -44.79260136	      7.83468625	     -3.09138732	      0.00000000	    -10.57759125	     -1.49373982	      6.01686720
      5.34500000	     -2.54335994	     -0.17087269	     -3.87439124	      1.38903088	      1.03497102	     -0.19317948	     -3.65176516	      5.13580191	     10.27025182	     -6.59996596	     14.86667643	    -11.90325216	      0.00000000	     28.63963892	     -4.46873623	    -15.03840927	    -42.92914200	      8.02953474	     -2.90695828	      0.00000000	    -10.53890485	     -1.59390866	      6.16472468
      5.35000000	     -2.57608555	     -0.11231445	     -4.00453739	      1.39502717	      1.03458052	     -0.19333822	     -4.13530808	      5.01470070	     10.56710928	     -6.27252196	     14.75607967	    -12.21036162	      0.00000000	     28.59140949	     -4.28194112	    -15.14607750	    -41.00946822	      8.18693919	     -2.71304856	      0.00000000	    -10.51023234	     -1.67603589	      6.30960549
      5.35500000	     -2.61329621	     -0.06723093	     -4.12501031	      1.40109170	      1.03411254	     -0.19350980	     -4.61436430	      4.90603884	     10.85012793	     -5.95554097	     14.65998901	    -12.50203337	      0.00000000	     28.51607654	     -4.09989609	    -15.23726383	    -39.03737079	      8.31172876	     -2.51589943	      0.00000000	    -10.46794493	     -1.74192420	      6.43447553
      5.36000000	     -2.63926103	     -0.03518046	     -4.24112945	      1.40719183	      1.03359590	     -0.19371232	     -5.10238460	      4.80666552	     11.13093511	     -5.65134045	     14.56466418	    -12.79095815	      0.00000000	     28.39849458	     -3.91864650	    -15.30042383	    -37.01420821	      8.39485929	     -2.31001505	      0.00000000	    -10.43910559	     -1.79173451	      6.56528693
      5.36500000	     -2.63287857	     -0.01742661	     -4.35547406	      1.41330379	      1.03307705	     -0.19394419	     -5.62315565	      4.71424158	     11.43672279	     -5.35730267	     14.45566767	    -13.08305558	      0.00000000	     28.21750568	     -3.73834733	    -15.32360877	    -34.94233857	      8.41950014	     -2.08133561	      0.00000000	    -10.45772516	     -1.82578138	      6.70746933
      5.37000000	     -2.74737868	     -0.02438142	     -4.41976943	      1.41952750	      1.03228618	     -0.19425586	     -6.00923413	      4.65863447	     11.59827346	     -5.09408849	     14.45328043	    -13.21827382	      0.00000000	     28.15321240	     -3.57078867	    -15.29688060	    -32.86099493	      8.45590087	     -1.79416964	      0.00000000	    -10.30848834	     -1.80962552	      6.76062248
      5.37500000	     -2.78561996	     -0.01353959	     -4.51640941	      1.42577474	      1.03156820	     -0.19459239	     -6.47600152	      4.56709092	     11.84179544	     -4.83397376	     14.42612558	    -13.40731191	      0.00000000	     27.96369407	     -3.37516231	    -15.26733374	    -30.70626576	      8.40960907	     -1.57344652	      0.00000000	    -10.25460163	     -1.81573447	      6.87104055
      5.38000000	     -2.70951489	     -0.04022861	     -4.62772640	      1.43205433	      1.03094397	     -0.19487488	     -7.07070021	      4.50679192	     12.09887671	     -4.56766569	     14.34401864	    -13.66218558	      0.00000000	     27.62267010	     -3.21078022	    -15.20867376	    -28.51962139	      8.36088271	     -1.34940890	      0.00000000	    -10.34210794	     -1.80858789	      7.00856579
      5.38500000	     -2.71152338	     -0.08483729	     -4.70596695	      1.43833009	      1.03016079	     -0.19527854	     -7.56991459	      4.46435780	     12.31191883	     -4.33593211	     14.32273905	    -13.79710642	      0.00000000	     27.35971859	     -3.04997690	    -15.05786988	    -26.33282521	      8.25285884	     -1.05945382	      0.00000000	    -10.34654416	     -1.74830968	      7.10515633
      5.39000000	     -2.82247587	     -0.13417678	     -4.76557288	      1.44472506	      1.02915771	     -0.19572305	     -7.95030647	      4.43460887	     12.46532074	     -4.12852675	     14.37075477	    -13.83478382	      0.00000000	     27.19789461	     -2.89295677	    -14.85679570	    -24.14551357	      8.12071308	     -0.77423165	      0.00000000	    -10.19153021	     -1.66988460	      7.15643483
      5.39500000	     -2.85258433	     -0.19175810	     -4.84182118	      1.45112286	      1.02823503	     -0.19621761	     -8.41078839	      4.39809044	     12.63631978	     -3.93385305	     14.40112740	    -13.87928548	      0.00000000	     26.92125987	     -2.72897474	    -14.57161653	    -21.92583038	      7.91542775	     -0.57321503	      0.00000000	    -10.14817778	     -1.58281674	      7.24389590
      5.40000000	     -2.76130834	     -0.26004372	     -4.90043501	      1.45759142	      1.02743363	     -0.19667859	     -9.00640562	      4.36868251	     12.75128243	     -3.73128984	     14.39351451	    -13.94533356	      0.00000000	     26.49601266	     -2.56773608	    -14.21958105	    -19.70944697	      7.70539255	     -0.32918716	      0.00000000	    -10.24888332	     -1.50797500	      7.31788320
      5.40500000	     -2.86251741	     -0.36220625	     -4.99421274	      1.46406613	      1.02632849	     -0.19719590	     -9.37246839	      4.37681311	     12.92741349	     -3.59696720	     14.46623071	    -13.89848740	      0.00000000	     26.26992142	     -2.46290204	    -13.76795947	    -17.52377831	      7.41726503	     -0.22555981	      0.00000000	    -10.11266922	     -1.35587014	      7.41552593
      5.41000000	     -2.88395176	     -0.46357335	     -5.06196009	      1.47061028	      1.02530009	     -0.19774946	     -9.82282589	      4.38012544	     13.04724283	     -3.46808983	     14.52724677	    -13.84562754	      0.00000000	     25.93513973	     -2.33915916	    -13.16254739	    -15.33637926	      7.04494515	     -0.24159784	      0.00000000	    -10.06919783	     -1.21407032	      7.49111831
      5.41500000	     -2.80353535	     -0.54276822	     -5.08796630	      1.47728846	      1.02436593	     -0.19830476	    -10.38580298	      4.36018356	     13.07892742	     -3.33927550	     14.59895030	    -13.77031684	      0.00000000	     25.46802300	     -2.18003250	    -12.41192845	    -13.16406525	      6.62002298	     -0.34533534	      0.00000000	    -10.13411663	     -1.11973270	      7.49816598
      5.42000000	     -2.81985788	     -0.68045632	     -5.19171153	      1.48394654	      1.02329904	     -0.19878667	    -10.81772415	      4.39819523	     13.18262108	     -3.27720793	     14.67196064	    -13.64749807	      0.00000000	     25.08658260	     -2.12974575	    -11.58297815	    -11.04131127	      6.11930334	     -0.66351499	      0.00000000	    -10.08587534	     -0.94669608	      7.61126737
      5.42500000	     -2.78515779	     -0.81448023	     -5.24283753	      1.49064764	      1.02226226	     -0.19932534	    -11.29393350	      4.43460351	     13.25733219	     -3.24688197	     14.78404224	    -13.48716412	      0.00000000	     24.64099141	     -2.06957694	    -10.55084756	     -8.96989086	      5.52759089	     -1.14270116	      0.00000000	    -10.10586194	     -0.78073985	      7.64802503
      5.43000000	     -2.75969254	     -0.97907772	     -5.32472202	      1.49738824	      1.02121306	     -0.19978251	    -11.74243724	      4.50364563	     13.32735708	     -3.26087736	     14.88622240	    -13.29362955	      0.00000000	     24.19400941	     -2.08093600	     -9.44554825	     -6.97431106	      4.88463634	     -1.80106612	      0.00000000	    -10.11169100	     -0.58802636	      7.72753491
